<svg width="1369" height="474" viewBox="0 0 1369 474" fill="none" xmlns="http://www.w3.org/2000/svg">
<path d="M14.4609 89.0703H20.8594V69.0664C20.8594 68.5508 20.8008 68.1406 20.6836 67.8359C20.5664 67.5312 20.4023 67.2969 20.1914 67.1328C19.9805 66.9453 19.7227 66.8281 19.418 66.7812C19.1367 66.7109 18.8203 66.6758 18.4688 66.6758C17.9531 66.6758 17.3086 66.7578 16.5352 66.9219C15.7852 67.0859 14.9883 67.332 14.1445 67.6602C13.3008 67.9883 12.4453 68.3984 11.5781 68.8906C10.7344 69.3594 9.97266 69.8984 9.29297 70.5078C8.63672 71.1172 8.09766 71.7969 7.67578 72.5469C7.25391 73.2969 7.04297 74.1055 7.04297 74.9727C7.04297 75.7227 7.13672 76.3203 7.32422 76.7656C7.53516 77.2109 7.76953 77.5508 8.02734 77.7852C8.28516 77.9961 8.54297 78.1367 8.80078 78.207C9.08203 78.2539 9.28125 78.2773 9.39844 78.2773C9.98438 78.2773 10.4648 78.1836 10.8398 77.9961C11.2148 77.7852 11.5547 77.5742 11.8594 77.3633C12.1641 77.1289 12.4453 76.918 12.7031 76.7305C12.9844 76.5195 13.3008 76.4141 13.6523 76.4141C13.9336 76.4141 14.2266 76.4844 14.5312 76.625C14.8594 76.7422 15.1523 76.9414 15.4102 77.2227C15.6914 77.5039 15.9258 77.8789 16.1133 78.3477C16.3008 78.793 16.3945 79.3438 16.3945 80C16.3945 80.9375 16.207 81.7461 15.832 82.4258C15.4805 83.1055 15.0117 83.6797 14.4258 84.1484C13.8633 84.5938 13.207 84.9336 12.457 85.168C11.7305 85.3789 11.0039 85.4844 10.2773 85.4844C9.15234 85.4844 8.13281 85.2969 7.21875 84.9219C6.32812 84.5234 5.56641 83.9844 4.93359 83.3047C4.30078 82.625 3.82031 81.8281 3.49219 80.9141C3.16406 80 3 79.0273 3 77.9961C3 76.3789 3.29297 74.9023 3.87891 73.5664C4.46484 72.207 5.26172 70.9883 6.26953 69.9102C7.30078 68.832 8.49609 67.8945 9.85547 67.0977C11.2383 66.2773 12.7266 65.5977 14.3203 65.0586C15.9141 64.5195 17.5781 64.1211 19.3125 63.8633C21.0469 63.582 22.7812 63.4414 24.5156 63.4414C26.4375 63.4414 27.9258 63.6289 28.9805 64.0039C30.0586 64.3555 30.8438 64.7891 31.3359 65.3047C31.8516 65.8203 32.1562 66.3594 32.25 66.9219C32.3438 67.4844 32.3906 67.9531 32.3906 68.3281V89.0703H45.3281V72.1602C45.3281 68.293 45.832 65 46.8398 62.2812C47.8477 59.5625 49.1484 57.3477 50.7422 55.6367C52.3359 53.9023 54.1172 52.6484 56.0859 51.875C58.0547 51.0781 60.0117 50.6797 61.957 50.6797C63.293 50.6797 64.5586 50.7852 65.7539 50.9961C66.9727 51.1836 68.0273 51.4766 68.918 51.875C69.832 52.2734 70.5586 52.7773 71.0977 53.3867C71.6367 53.9727 71.9062 54.6641 71.9062 55.4609C71.9062 55.8125 71.8477 56.1523 71.7305 56.4805C71.6367 56.7852 71.4961 57.0664 71.3086 57.3242C71.1211 57.582 70.8984 57.793 70.6406 57.957C70.4062 58.0977 70.1602 58.168 69.9023 58.168C69.4805 58.168 69.1055 58.0391 68.7773 57.7812C68.4492 57.5234 68.1328 57.207 67.8281 56.832C67.5469 56.4336 67.2656 56.0117 66.9844 55.5664C66.7031 55.0977 66.3867 54.6758 66.0352 54.3008C65.6836 53.9023 65.2852 53.5742 64.8398 53.3164C64.3945 53.0586 63.8672 52.9297 63.2578 52.9297C61.8281 52.9297 60.6914 53.3281 59.8477 54.125C59.0039 54.8984 58.3594 56.0469 57.9141 57.5703C57.4688 59.0703 57.1758 60.9453 57.0352 63.1953C56.918 65.4453 56.8594 68.0234 56.8594 70.9297V89.0703H63.9258V92.1641H56.8594V113.539C56.8594 114.219 57 114.77 57.2812 115.191C57.5859 115.59 58.043 115.789 58.6523 115.789C59.3086 115.789 59.918 115.672 60.4805 115.438C61.043 115.203 61.5352 114.98 61.957 114.77L62.5547 116.07C62.0391 116.422 61.4297 116.785 60.7266 117.16C60.0469 117.559 59.2852 117.922 58.4414 118.25C57.6211 118.602 56.7305 118.883 55.7695 119.094C54.832 119.328 53.8477 119.445 52.8164 119.445C51.2227 119.445 49.9336 119.234 48.9492 118.812C47.9648 118.391 47.2031 117.828 46.6641 117.125C46.125 116.445 45.7617 115.672 45.5742 114.805C45.4102 113.938 45.3281 113.059 45.3281 112.168V92.1641H32.3906V109.672C32.3906 112.859 31.8047 115.637 30.6328 118.004C29.4844 120.371 27.9023 122.34 25.8867 123.91C23.8711 125.504 21.4922 126.688 18.75 127.461C16.0312 128.258 13.1133 128.656 9.99609 128.656C8.80078 128.656 7.65234 128.551 6.55078 128.34C5.44922 128.152 4.47656 127.883 3.63281 127.531C2.78906 127.18 2.12109 126.758 1.62891 126.266C1.11328 125.797 0.855469 125.281 0.855469 124.719C0.855469 124.297 0.914062 123.863 1.03125 123.418C1.14844 122.996 1.32422 122.609 1.55859 122.258C1.79297 121.906 2.08594 121.613 2.4375 121.379C2.76562 121.145 3.14062 121.027 3.5625 121.027C3.82031 121.027 4.04297 121.156 4.23047 121.414C4.44141 121.672 4.65234 121.988 4.86328 122.363C5.07422 122.762 5.30859 123.184 5.56641 123.629C5.84766 124.074 6.19922 124.484 6.62109 124.859C7.06641 125.258 7.59375 125.586 8.20312 125.844C8.8125 126.102 9.57422 126.23 10.4883 126.23C12.293 126.23 13.8398 125.902 15.1289 125.246C16.4414 124.59 17.5195 123.664 18.3633 122.469C19.207 121.273 19.8281 119.844 20.2266 118.18C20.6484 116.539 20.8594 114.734 20.8594 112.766V92.1641H14.4609V89.0703ZM81.0623 99.8633C81.0623 100.613 81.1678 101.434 81.3788 102.324C81.6131 103.191 81.9413 104.07 82.3631 104.961C82.785 105.852 83.3006 106.707 83.91 107.527C84.5428 108.324 85.2577 109.039 86.0545 109.672C86.8748 110.305 87.7772 110.809 88.7616 111.184C89.7459 111.559 90.8241 111.746 91.9959 111.746C92.8163 111.746 93.578 111.652 94.2811 111.465C94.9842 111.277 95.6405 111.02 96.2498 110.691C96.8592 110.363 97.4452 109.988 98.0077 109.566C98.5702 109.121 99.1327 108.652 99.6952 108.16L100.574 109.004C100.035 109.73 99.3436 110.527 98.4998 111.395C97.6561 112.262 96.6366 113.082 95.4413 113.855C94.2459 114.605 92.8514 115.238 91.2577 115.754C89.6639 116.246 87.8475 116.492 85.8084 116.492C83.7694 116.492 81.7772 116.129 79.8319 115.402C77.91 114.652 76.1991 113.539 74.6991 112.062C73.1991 110.586 71.992 108.746 71.078 106.543C70.1873 104.34 69.742 101.762 69.742 98.8086C69.742 96.6758 70.0116 94.7188 70.5506 92.9375C71.0897 91.1562 71.8163 89.5508 72.7303 88.1211C73.6678 86.6914 74.7459 85.4375 75.9647 84.3594C77.2069 83.2812 78.5077 82.3906 79.867 81.6875C81.2264 80.9609 82.6092 80.4219 84.0155 80.0703C85.4452 79.6953 86.8163 79.5078 88.1288 79.5078C89.8631 79.5078 91.3748 79.6953 92.6639 80.0703C93.953 80.4453 95.0194 80.9492 95.8631 81.582C96.7303 82.2148 97.3748 82.9531 97.7967 83.7969C98.2186 84.6172 98.4295 85.4844 98.4295 86.3984C98.4295 87.5 98.1131 88.4961 97.4803 89.3867C96.8475 90.2539 96.0038 91.0156 94.9491 91.6719L81.0623 99.8633ZM88.1288 92.7266C88.4334 92.5391 88.6795 92.3633 88.867 92.1992C89.078 92.0117 89.242 91.8008 89.3592 91.5664C89.4764 91.3086 89.5584 91.0039 89.6053 90.6523C89.6756 90.2773 89.7108 89.8203 89.7108 89.2812C89.7108 88.6953 89.6405 88.0508 89.4998 87.3477C89.3827 86.6211 89.1717 85.9414 88.867 85.3086C88.5623 84.6758 88.1756 84.1484 87.7069 83.7266C87.2381 83.3047 86.6756 83.0938 86.0194 83.0938C85.1756 83.0938 84.4491 83.3516 83.8397 83.8672C83.2538 84.3594 82.7616 85.0039 82.3631 85.8008C81.9881 86.5977 81.6834 87.5117 81.4491 88.543C81.2381 89.5508 81.0741 90.5703 80.9569 91.6016C80.8397 92.6328 80.7694 93.6289 80.7459 94.5898C80.7225 95.5273 80.7108 96.3242 80.7108 96.9805L88.1288 92.7266ZM117.64 112.906C117.64 113.211 117.582 113.574 117.465 113.996C117.371 114.418 117.125 114.816 116.726 115.191C116.351 115.566 115.789 115.883 115.039 116.141C114.312 116.422 113.328 116.562 112.086 116.562C110.843 116.562 109.871 116.41 109.168 116.105C108.465 115.824 107.937 115.484 107.586 115.086C107.257 114.688 107.047 114.277 106.953 113.855C106.882 113.434 106.847 113.094 106.847 112.836V67.4844C106.847 66.8047 106.683 66.2188 106.355 65.7266C106.05 65.2109 105.523 64.9531 104.773 64.9531C104.375 64.9531 104.023 65.0234 103.718 65.1641C103.437 65.2812 103.132 65.4688 102.804 65.7266L102.101 64.8828C102.64 64.4375 103.238 64.0039 103.894 63.582C104.55 63.1367 105.265 62.75 106.039 62.4219C106.836 62.0938 107.679 61.8242 108.57 61.6133C109.461 61.4023 110.398 61.2969 111.382 61.2969C112.906 61.2969 114.09 61.5078 114.933 61.9297C115.777 62.3281 116.398 62.832 116.797 63.4414C117.195 64.0273 117.429 64.6602 117.5 65.3398C117.593 65.9961 117.64 66.582 117.64 67.0977V112.906ZM139.558 112.906C139.558 113.211 139.5 113.574 139.382 113.996C139.289 114.418 139.043 114.816 138.644 115.191C138.269 115.566 137.707 115.883 136.957 116.141C136.23 116.422 135.246 116.562 134.003 116.562C132.761 116.562 131.789 116.41 131.085 116.105C130.382 115.824 129.855 115.484 129.503 115.086C129.175 114.688 128.964 114.277 128.871 113.855C128.8 113.434 128.765 113.094 128.765 112.836V67.4844C128.765 66.8047 128.601 66.2188 128.273 65.7266C127.968 65.2109 127.441 64.9531 126.691 64.9531C126.293 64.9531 125.941 65.0234 125.636 65.1641C125.355 65.2812 125.05 65.4688 124.722 65.7266L124.019 64.8828C124.558 64.4375 125.156 64.0039 125.812 63.582C126.468 63.1367 127.183 62.75 127.957 62.4219C128.753 62.0938 129.597 61.8242 130.488 61.6133C131.378 61.4023 132.316 61.2969 133.3 61.2969C134.824 61.2969 136.007 61.5078 136.851 61.9297C137.695 62.3281 138.316 62.832 138.714 63.4414C139.113 64.0273 139.347 64.6602 139.418 65.3398C139.511 65.9961 139.558 66.582 139.558 67.0977V112.906ZM148.363 98C148.363 94.9297 148.808 92.2461 149.699 89.9492C150.589 87.6289 151.773 85.6953 153.249 84.1484C154.749 82.6016 156.484 81.4414 158.452 80.668C160.421 79.8945 162.484 79.5078 164.64 79.5078C166.796 79.5078 168.859 79.8711 170.827 80.5977C172.796 81.3008 174.519 82.3906 175.995 83.8672C177.495 85.3438 178.691 87.2188 179.581 89.4922C180.472 91.7422 180.917 94.4141 180.917 97.5078C180.917 100.578 180.472 103.297 179.581 105.664C178.691 108.031 177.495 110.023 175.995 111.641C174.519 113.258 172.796 114.488 170.827 115.332C168.859 116.152 166.796 116.562 164.64 116.562C162.484 116.562 160.421 116.176 158.452 115.402C156.484 114.605 154.749 113.434 153.249 111.887C151.773 110.34 150.589 108.406 149.699 106.086C148.808 103.766 148.363 101.07 148.363 98ZM169.984 97.6484C169.984 95.7734 169.913 93.9688 169.773 92.2344C169.656 90.4766 169.41 88.918 169.035 87.5586C168.66 86.1992 168.12 85.1211 167.417 84.3242C166.714 83.5039 165.788 83.0938 164.64 83.0938C163.492 83.0938 162.566 83.5273 161.863 84.3945C161.16 85.2383 160.62 86.3633 160.245 87.7695C159.87 89.1523 159.624 90.7344 159.507 92.5156C159.39 94.2969 159.331 96.125 159.331 98C159.331 99.875 159.39 101.715 159.507 103.52C159.624 105.301 159.87 106.895 160.245 108.301C160.62 109.707 161.16 110.844 161.863 111.711C162.566 112.555 163.492 112.977 164.64 112.977C165.788 112.977 166.714 112.531 167.417 111.641C168.12 110.75 168.66 109.578 169.035 108.125C169.41 106.672 169.656 105.031 169.773 103.203C169.913 101.375 169.984 99.5234 169.984 97.6484ZM246.972 91.8125H233.085V111.395C233.085 113.199 232.605 114.512 231.644 115.332C230.706 116.152 229.265 116.562 227.319 116.562C225.351 116.562 223.898 116.152 222.96 115.332C222.023 114.512 221.554 113.199 221.554 111.395V91.8125H216.069V88.7188H221.554V66.6055C220.804 66.6758 219.937 66.8164 218.952 67.0273C217.991 67.2148 216.995 67.4961 215.964 67.8711C214.956 68.2227 213.96 68.6445 212.976 69.1367C211.991 69.6289 211.112 70.2031 210.339 70.8594C209.565 71.5156 208.933 72.2539 208.44 73.0742C207.972 73.8711 207.737 74.7383 207.737 75.6758C207.737 76.4258 207.831 77.0234 208.019 77.4688C208.23 77.9141 208.464 78.2539 208.722 78.4883C208.98 78.6992 209.237 78.8398 209.495 78.9102C209.776 78.957 209.976 78.9805 210.093 78.9805C210.679 78.9805 211.159 78.8867 211.534 78.6992C211.909 78.4883 212.249 78.2773 212.554 78.0664C212.858 77.832 213.14 77.6211 213.398 77.4336C213.679 77.2227 213.995 77.1172 214.347 77.1172C214.628 77.1172 214.921 77.1875 215.226 77.3281C215.554 77.4453 215.847 77.6445 216.105 77.9258C216.386 78.207 216.62 78.582 216.808 79.0508C216.995 79.4961 217.089 80.0469 217.089 80.7031C217.089 81.6406 216.901 82.4609 216.526 83.1641C216.175 83.8438 215.706 84.4062 215.12 84.8516C214.558 85.2969 213.901 85.6367 213.151 85.8711C212.425 86.082 211.698 86.1875 210.972 86.1875C209.847 86.1875 208.827 86 207.913 85.625C207.023 85.2266 206.261 84.6875 205.628 84.0078C204.995 83.3281 204.515 82.543 204.187 81.6523C203.858 80.7383 203.694 79.7539 203.694 78.6992C203.694 75.957 204.444 73.625 205.944 71.7031C207.468 69.7812 209.542 68.2109 212.167 66.9922C214.792 65.75 217.851 64.8477 221.343 64.2852C224.835 63.7227 228.573 63.4414 232.558 63.4414C234.175 63.4414 235.862 63.4648 237.62 63.5117C239.378 63.5352 241.03 63.582 242.577 63.6523C244.148 63.7227 245.53 63.8047 246.726 63.8984C247.921 63.9922 248.765 64.0977 249.257 64.2148C249.726 64.332 250.101 64.4609 250.382 64.6016C250.663 64.7422 250.874 64.9062 251.015 65.0938C251.155 65.2812 251.249 65.5039 251.296 65.7617C251.343 65.9961 251.366 66.2773 251.366 66.6055C251.366 66.8867 251.331 67.2031 251.261 67.5547C251.19 67.8828 251.085 68.1992 250.944 68.5039C250.804 68.7852 250.628 69.0312 250.417 69.2422C250.206 69.4531 249.948 69.5586 249.644 69.5586C249.456 69.5586 249.245 69.4766 249.011 69.3125C248.8 69.1484 248.483 68.9375 248.062 68.6797C247.663 68.4219 247.112 68.1523 246.409 67.8711C245.73 67.5898 244.804 67.3203 243.632 67.0625C242.483 66.8047 241.042 66.5938 239.308 66.4297C237.597 66.2656 235.523 66.1836 233.085 66.1836V88.7188H246.972V91.8125ZM266.675 112.906C266.675 113.211 266.616 113.574 266.499 113.996C266.405 114.418 266.159 114.816 265.761 115.191C265.386 115.566 264.823 115.883 264.073 116.141C263.347 116.422 262.362 116.562 261.12 116.562C259.878 116.562 258.905 116.41 258.202 116.105C257.499 115.824 256.972 115.484 256.62 115.086C256.292 114.688 256.081 114.277 255.987 113.855C255.917 113.434 255.882 113.094 255.882 112.836V67.4844C255.882 66.8047 255.718 66.2188 255.39 65.7266C255.085 65.2109 254.557 64.9531 253.807 64.9531C253.409 64.9531 253.057 65.0234 252.753 65.1641C252.472 65.2812 252.167 65.4688 251.839 65.7266L251.136 64.8828C251.675 64.4375 252.272 64.0039 252.929 63.582C253.585 63.1367 254.3 62.75 255.073 62.4219C255.87 62.0938 256.714 61.8242 257.604 61.6133C258.495 61.4023 259.432 61.2969 260.417 61.2969C261.94 61.2969 263.124 61.5078 263.968 61.9297C264.811 62.3281 265.432 62.832 265.831 63.4414C266.229 64.0273 266.464 64.6602 266.534 65.3398C266.628 65.9961 266.675 66.582 266.675 67.0977V112.906ZM275.479 98C275.479 94.9297 275.925 92.2461 276.815 89.9492C277.706 87.6289 278.889 85.6953 280.366 84.1484C281.866 82.6016 283.6 81.4414 285.569 80.668C287.538 79.8945 289.6 79.5078 291.757 79.5078C293.913 79.5078 295.975 79.8711 297.944 80.5977C299.913 81.3008 301.635 82.3906 303.112 83.8672C304.612 85.3438 305.807 87.2188 306.698 89.4922C307.589 91.7422 308.034 94.4141 308.034 97.5078C308.034 100.578 307.589 103.297 306.698 105.664C305.807 108.031 304.612 110.023 303.112 111.641C301.635 113.258 299.913 114.488 297.944 115.332C295.975 116.152 293.913 116.562 291.757 116.562C289.6 116.562 287.538 116.176 285.569 115.402C283.6 114.605 281.866 113.434 280.366 111.887C278.889 110.34 277.706 108.406 276.815 106.086C275.925 103.766 275.479 101.07 275.479 98ZM297.1 97.6484C297.1 95.7734 297.03 93.9688 296.889 92.2344C296.772 90.4766 296.526 88.918 296.151 87.5586C295.776 86.1992 295.237 85.1211 294.534 84.3242C293.831 83.5039 292.905 83.0938 291.757 83.0938C290.608 83.0938 289.682 83.5273 288.979 84.3945C288.276 85.2383 287.737 86.3633 287.362 87.7695C286.987 89.1523 286.741 90.7344 286.624 92.5156C286.507 94.2969 286.448 96.125 286.448 98C286.448 99.875 286.507 101.715 286.624 103.52C286.741 105.301 286.987 106.895 287.362 108.301C287.737 109.707 288.276 110.844 288.979 111.711C289.682 112.555 290.608 112.977 291.757 112.977C292.905 112.977 293.831 112.531 294.534 111.641C295.237 110.75 295.776 109.578 296.151 108.125C296.526 106.672 296.772 105.031 296.889 103.203C297.03 101.375 297.1 99.5234 297.1 97.6484ZM359.624 90.6523C359.624 89.1055 359.518 87.8281 359.307 86.8203C359.096 85.8125 358.862 84.9805 358.604 84.3242C358.37 83.6445 358.147 83.0938 357.936 82.6719C357.725 82.2266 357.62 81.8164 357.62 81.4414C357.62 81.0898 357.76 80.7969 358.042 80.5625C358.323 80.3281 358.651 80.1289 359.026 79.9648C359.424 79.8008 359.823 79.6836 360.221 79.6133C360.643 79.543 360.983 79.5078 361.241 79.5078C361.92 79.5078 362.413 79.6016 362.717 79.7891C363.022 79.9766 363.268 80.3398 363.456 80.8789C363.667 81.5586 363.807 82.4609 363.878 83.5859C363.971 84.6875 364.018 85.8711 364.018 87.1367C364.018 88.9414 363.913 90.9219 363.702 93.0781C363.491 95.2344 363.151 97.4023 362.682 99.582C362.237 101.762 361.651 103.871 360.924 105.91C360.221 107.949 359.366 109.766 358.358 111.359C357.35 112.93 356.19 114.195 354.878 115.156C353.565 116.094 352.077 116.562 350.413 116.562C349.1 116.562 347.917 116.305 346.862 115.789C345.831 115.25 344.905 114.523 344.085 113.609C343.264 112.695 342.538 111.629 341.905 110.41C341.295 109.168 340.756 107.844 340.288 106.438C339.749 107.867 339.128 109.203 338.424 110.445C337.721 111.664 336.936 112.73 336.069 113.645C335.225 114.559 334.288 115.273 333.256 115.789C332.225 116.305 331.112 116.562 329.917 116.562C328.44 116.562 327.128 116.246 325.979 115.613C324.854 114.957 323.858 114.078 322.991 112.977C322.124 111.852 321.374 110.551 320.741 109.074C320.108 107.598 319.557 106.039 319.088 104.398C318.643 102.758 318.268 101.07 317.963 99.3359C317.659 97.6016 317.401 95.9258 317.19 94.3086C316.979 92.6914 316.803 91.1797 316.663 89.7734C316.522 88.3672 316.381 87.1484 316.241 86.1172C316.077 85.1797 315.831 84.4531 315.503 83.9375C315.198 83.4219 314.67 83.1641 313.92 83.1641C313.522 83.1641 313.182 83.2344 312.901 83.375C312.62 83.5156 312.315 83.7148 311.987 83.9727L311.249 83.0938C311.788 82.6484 312.385 82.2148 313.042 81.793C313.721 81.3477 314.448 80.9609 315.221 80.6328C315.995 80.3047 316.827 80.0352 317.717 79.8242C318.608 79.6133 319.545 79.5078 320.53 79.5078C321.936 79.5078 323.073 79.7539 323.94 80.2461C324.807 80.7148 325.487 81.3125 325.979 82.0391C326.495 82.7422 326.858 83.5039 327.069 84.3242C327.28 85.1445 327.432 85.8828 327.526 86.5391C327.948 90.0781 328.358 93.1953 328.756 95.8906C329.178 98.5859 329.624 100.848 330.092 102.676C330.561 104.48 331.065 105.852 331.604 106.789C332.167 107.703 332.823 108.16 333.573 108.16C334.065 108.16 334.545 107.949 335.014 107.527C335.483 107.105 335.928 106.52 336.35 105.77C336.772 105.02 337.17 104.117 337.545 103.062C337.92 101.984 338.249 100.801 338.53 99.5117C338.295 98.2227 338.096 96.9453 337.932 95.6797C337.768 94.4141 337.616 93.207 337.475 92.0586C337.358 90.8867 337.241 89.7969 337.124 88.7891C337.006 87.7812 336.878 86.8906 336.737 86.1172C336.385 83.9141 336.585 82.2617 337.335 81.1602C338.108 80.0586 339.643 79.5078 341.94 79.5078C342.948 79.5078 343.792 79.6016 344.471 79.7891C345.174 79.9531 345.749 80.2812 346.194 80.7734C346.663 81.2422 347.038 81.8984 347.319 82.7422C347.6 83.5625 347.823 84.6172 347.987 85.9062C348.432 89.4219 348.866 92.5625 349.288 95.3281C349.71 98.0938 350.155 100.426 350.624 102.324C351.092 104.223 351.596 105.676 352.135 106.684C352.698 107.668 353.354 108.16 354.104 108.16C354.901 108.16 355.639 107.668 356.319 106.684C356.999 105.699 357.585 104.398 358.077 102.781C358.569 101.164 358.944 99.3008 359.202 97.1914C359.483 95.082 359.624 92.9023 359.624 90.6523ZM382.104 99.8633C382.104 100.613 382.209 101.434 382.42 102.324C382.655 103.191 382.983 104.07 383.405 104.961C383.827 105.852 384.342 106.707 384.952 107.527C385.584 108.324 386.299 109.039 387.096 109.672C387.916 110.305 388.819 110.809 389.803 111.184C390.788 111.559 391.866 111.746 393.038 111.746C393.858 111.746 394.62 111.652 395.323 111.465C396.026 111.277 396.682 111.02 397.291 110.691C397.901 110.363 398.487 109.988 399.049 109.566C399.612 109.121 400.174 108.652 400.737 108.16L401.616 109.004C401.077 109.73 400.385 110.527 399.541 111.395C398.698 112.262 397.678 113.082 396.483 113.855C395.288 114.605 393.893 115.238 392.299 115.754C390.705 116.246 388.889 116.492 386.85 116.492C384.811 116.492 382.819 116.129 380.873 115.402C378.952 114.652 377.241 113.539 375.741 112.062C374.241 110.586 373.034 108.746 372.12 106.543C371.229 104.34 370.784 101.762 370.784 98.8086C370.784 96.6758 371.053 94.7188 371.592 92.9375C372.131 91.1562 372.858 89.5508 373.772 88.1211C374.709 86.6914 375.788 85.4375 377.006 84.3594C378.248 83.2812 379.549 82.3906 380.909 81.6875C382.268 80.9609 383.651 80.4219 385.057 80.0703C386.487 79.6953 387.858 79.5078 389.17 79.5078C390.905 79.5078 392.416 79.6953 393.705 80.0703C394.995 80.4453 396.061 80.9492 396.905 81.582C397.772 82.2148 398.416 82.9531 398.838 83.7969C399.26 84.6172 399.471 85.4844 399.471 86.3984C399.471 87.5 399.155 88.4961 398.522 89.3867C397.889 90.2539 397.045 91.0156 395.991 91.6719L382.104 99.8633ZM389.17 92.7266C389.475 92.5391 389.721 92.3633 389.909 92.1992C390.12 92.0117 390.284 91.8008 390.401 91.5664C390.518 91.3086 390.6 91.0039 390.647 90.6523C390.717 90.2773 390.752 89.8203 390.752 89.2812C390.752 88.6953 390.682 88.0508 390.541 87.3477C390.424 86.6211 390.213 85.9414 389.909 85.3086C389.604 84.6758 389.217 84.1484 388.748 83.7266C388.28 83.3047 387.717 83.0938 387.061 83.0938C386.217 83.0938 385.491 83.3516 384.881 83.8672C384.295 84.3594 383.803 85.0039 383.405 85.8008C383.03 86.5977 382.725 87.5117 382.491 88.543C382.28 89.5508 382.116 90.5703 381.998 91.6016C381.881 92.6328 381.811 93.6289 381.788 94.5898C381.764 95.5273 381.752 96.3242 381.752 96.9805L389.17 92.7266ZM419.737 86.9258C420.627 85.5664 421.576 84.3359 422.584 83.2344C423.006 82.7656 423.463 82.3086 423.955 81.8633C424.448 81.418 424.951 81.0195 425.467 80.668C426.006 80.3164 426.557 80.0352 427.119 79.8242C427.682 79.6133 428.244 79.5078 428.807 79.5078C430.002 79.5078 430.94 79.8711 431.619 80.5977C432.299 81.3008 432.639 82.2969 432.639 83.5859C432.639 84.3828 432.569 85.1562 432.428 85.9062C432.311 86.6328 432.065 87.5234 431.69 88.5781H430.705C430.565 87.8516 430.237 87.2539 429.721 86.7852C429.205 86.293 428.455 86.0469 427.471 86.0469C426.744 86.0469 426.03 86.1875 425.326 86.4688C424.623 86.7266 423.932 87.0547 423.252 87.4531C422.596 87.8516 421.963 88.2852 421.354 88.7539C420.768 89.2227 420.229 89.668 419.737 90.0898V112.906C419.737 113.211 419.69 113.574 419.596 113.996C419.502 114.418 419.268 114.816 418.893 115.191C418.541 115.566 418.002 115.883 417.276 116.141C416.573 116.422 415.6 116.562 414.358 116.562C413.115 116.562 412.131 116.41 411.405 116.105C410.701 115.824 410.162 115.484 409.787 115.086C409.412 114.688 409.178 114.277 409.084 113.855C408.99 113.434 408.944 113.094 408.944 112.836V85.6953C408.944 85.0156 408.78 84.4297 408.451 83.9375C408.147 83.4219 407.619 83.1641 406.869 83.1641C406.471 83.1641 406.131 83.2344 405.85 83.375C405.569 83.5156 405.264 83.7148 404.936 83.9727L404.198 83.0938C404.737 82.6484 405.334 82.2148 405.99 81.793C406.67 81.3477 407.397 80.9609 408.17 80.6328C408.944 80.3047 409.776 80.0352 410.666 79.8242C411.557 79.6133 412.494 79.5078 413.479 79.5078C414.487 79.5078 415.342 79.6484 416.045 79.9297C416.772 80.1875 417.358 80.5391 417.803 80.9844C418.272 81.4062 418.635 81.8867 418.893 82.4258C419.151 82.9648 419.338 83.5156 419.455 84.0781C419.596 84.6172 419.678 85.1445 419.701 85.6602C419.725 86.1523 419.737 86.5742 419.737 86.9258ZM442.111 110.656C442.111 109.836 442.264 109.062 442.568 108.336C442.873 107.609 443.283 106.977 443.799 106.438C444.338 105.898 444.971 105.477 445.697 105.172C446.424 104.844 447.197 104.68 448.018 104.68C448.838 104.68 449.611 104.844 450.338 105.172C451.065 105.477 451.697 105.898 452.236 106.438C452.775 106.977 453.197 107.609 453.502 108.336C453.83 109.062 453.994 109.836 453.994 110.656C453.994 111.5 453.83 112.285 453.502 113.012C453.197 113.715 452.775 114.336 452.236 114.875C451.697 115.391 451.065 115.801 450.338 116.105C449.611 116.41 448.838 116.562 448.018 116.562C447.197 116.562 446.424 116.41 445.697 116.105C444.971 115.801 444.338 115.391 443.799 114.875C443.283 114.336 442.873 113.715 442.568 113.012C442.264 112.285 442.111 111.5 442.111 110.656ZM442.393 66.957C442.393 66.7227 442.44 66.4062 442.533 66.0078C442.627 65.6094 442.85 65.2227 443.201 64.8477C443.553 64.4492 444.08 64.1211 444.783 63.8633C445.51 63.582 446.494 63.4414 447.736 63.4414C448.979 63.4414 449.963 63.5703 450.69 63.8281C451.44 64.0625 452.014 64.3672 452.412 64.7422C452.811 65.0938 453.068 65.4805 453.186 65.9023C453.303 66.3008 453.35 66.6523 453.326 66.957C453.186 68.9961 453.022 71.0352 452.834 73.0742C452.67 75.1133 452.483 77.1055 452.272 79.0508C452.061 80.9961 451.838 82.8828 451.604 84.7109C451.369 86.5156 451.147 88.2148 450.936 89.8086C450.42 93.5352 449.881 97.1094 449.318 100.531H446.717C446.108 97.1094 445.522 93.5352 444.959 89.8086C444.725 88.2148 444.479 86.5156 444.221 84.7109C443.986 82.8828 443.752 80.9961 443.518 79.0508C443.283 77.082 443.072 75.0781 442.885 73.0391C442.697 71 442.533 68.9727 442.393 66.957ZM42.5312 296H14.2305V165.188H42.5312V296ZM93.832 243.082H34.9844V220.352H93.832V243.082ZM100.031 188.008H34.9844V165.188H100.031V188.008ZM141.712 296H111.614L160.219 165.188H179.266L176.571 189.984L141.712 296ZM170.192 189.984L167.227 165.188H186.364L235.239 296H205.141L170.192 189.984ZM204.243 269.945H134.883V247.125H204.243V269.945ZM392.275 296H323.185V273.27H392.275V296ZM332.259 296H303.959V165.188H332.259V296ZM383.291 239.758H323.185V217.746H383.291V239.758ZM392.185 188.008H323.185V165.188H392.185V188.008ZM460.416 209.48L483.955 165.188H516.389L478.744 230.055L517.287 296H484.584L460.416 250.898L436.158 296H403.455L442.088 230.055L404.354 165.188H436.787L460.416 209.48ZM622.803 240.477H555.6V217.746H622.803V240.477ZM563.956 296H535.655V165.188H563.956V296ZM643.018 296H614.807V165.188H643.018V296ZM701.097 296H672.886V165.188H701.097V296ZM749.382 239.398L749.203 219.723H777.144C784.272 219.723 789.542 218.405 792.957 215.77C796.371 213.074 798.078 209.211 798.078 204.18C798.078 198.43 796.401 194.297 793.046 191.781C789.692 189.266 784.391 188.008 777.144 188.008H759.175V296H730.875V165.188H777.144C792.537 165.188 804.576 168.122 813.261 173.992C821.946 179.862 826.289 188.906 826.289 201.125C826.289 206.456 825.061 211.457 822.605 216.129C820.209 220.741 816.376 224.484 811.105 227.359C805.834 230.234 798.976 231.762 790.531 231.941L782.625 239.398H749.382ZM741.656 296L752.617 273.27H781.457C788.225 273.27 793.166 271.742 796.281 268.688C799.395 265.573 800.953 261.71 800.953 257.098C800.953 253.444 800.324 250.299 799.066 247.664C797.808 245.029 795.832 242.992 793.136 241.555C790.501 240.117 786.997 239.398 782.625 239.398H756.39L756.57 219.723H789.003L795.562 227.539C803.648 227.359 810.147 228.707 815.058 231.582C819.97 234.397 823.533 238.111 825.75 242.723C827.966 247.335 829.074 252.216 829.074 257.367C829.074 270.125 824.971 279.768 816.765 286.297C808.559 292.766 796.79 296 781.457 296H741.656ZM884.277 296H856.066V165.188H884.277V296ZM973.801 296H945.59V165.188H973.801V296ZM1013.51 188.008H906.418V165.188H1013.51V188.008ZM1063.86 296H1035.65V165.188H1063.86V296ZM1201.99 233.289C1201.99 246.706 1199.63 258.236 1194.9 267.879C1190.16 277.462 1183.61 284.859 1175.22 290.07C1166.83 295.221 1157.13 297.797 1146.11 297.797C1135.09 297.797 1125.33 295.221 1116.82 290.07C1108.38 284.859 1101.76 277.462 1096.97 267.879C1092.17 258.236 1089.78 246.706 1089.78 233.289V227.988C1089.78 214.572 1092.14 203.072 1096.88 193.488C1101.67 183.845 1108.29 176.418 1116.73 171.207C1125.18 165.996 1134.91 163.391 1145.93 163.391C1156.95 163.391 1166.66 165.996 1175.04 171.207C1183.49 176.418 1190.07 183.845 1194.81 193.488C1199.6 203.072 1201.99 214.572 1201.99 227.988V233.289ZM1173.51 227.809C1173.51 218.824 1172.44 211.277 1170.28 205.168C1168.12 199.059 1164.98 194.447 1160.85 191.332C1156.71 188.217 1151.74 186.66 1145.93 186.66C1140 186.66 1135 188.217 1130.93 191.332C1126.85 194.447 1123.74 199.059 1121.58 205.168C1119.49 211.277 1118.44 218.824 1118.44 227.809V233.289C1118.44 242.214 1119.52 249.76 1121.67 255.93C1123.83 262.039 1126.94 266.681 1131.02 269.855C1135.15 273.03 1140.18 274.617 1146.11 274.617C1151.92 274.617 1156.86 273.03 1160.94 269.855C1165.07 266.681 1168.18 262.039 1170.28 255.93C1172.44 249.76 1173.51 242.214 1173.51 233.289V227.809ZM1333.56 296H1305.35L1254.59 211.816V296H1226.38V165.188H1254.59L1305.44 249.461V165.188H1333.56V296Z" fill="#FCFCFC"/>
<path d="M1079.71 439V441H1081.71V439H1079.71ZM1009.18 439H1007.18V441H1009.18V439ZM1009.18 424.516L1007.73 423.146L1007.18 423.723V424.516H1009.18ZM1042.23 389.359L1043.69 390.729L1043.7 390.722L1043.7 390.714L1042.23 389.359ZM1049.97 380.008L1048.33 378.853L1048.33 378.859L1049.97 380.008ZM1051.93 356.031L1050.41 357.328L1050.42 357.343L1050.44 357.358L1051.93 356.031ZM1034.85 354.484L1035.98 356.131L1036 356.123L1036.01 356.114L1034.85 354.484ZM1030 360.461L1028.17 359.649L1028.17 359.657L1028.16 359.665L1030 360.461ZM1028.38 369.039V371.039H1030.38V369.039H1028.38ZM1007.15 369.039H1005.15V371.039H1007.15V369.039ZM1011.5 352.094L1013.24 353.083L1013.25 353.076L1011.5 352.094ZM1023.88 339.789L1024.87 341.526L1024.87 341.524L1023.88 339.789ZM1065.72 390.414L1064.16 389.152L1064.16 389.163L1065.72 390.414ZM1053.62 404.055L1052.18 402.669L1052.17 402.675L1053.62 404.055ZM1036.61 421.914L1035.16 420.534L1031.94 423.914H1036.61V421.914ZM1079.71 421.914H1081.71V419.914H1079.71V421.914ZM1079.71 437H1009.18V441H1079.71V437ZM1011.18 439V424.516H1007.18V439H1011.18ZM1010.64 425.885L1043.69 390.729L1040.77 387.99L1007.73 423.146L1010.64 425.885ZM1043.7 390.714C1047.02 387.115 1049.66 383.926 1051.6 381.157L1048.33 378.859C1046.52 381.433 1044.01 384.479 1040.76 388.004L1043.7 390.714ZM1051.6 381.162C1053.58 378.353 1055.05 375.731 1055.92 373.305L1052.16 371.945C1051.45 373.925 1050.19 376.225 1048.33 378.853L1051.6 381.162ZM1055.92 373.305C1056.78 370.93 1057.24 368.636 1057.24 366.438H1053.24C1053.24 368.083 1052.9 369.914 1052.16 371.945L1055.92 373.305ZM1057.24 366.438C1057.24 361.664 1056.05 357.664 1053.43 354.704L1050.44 357.358C1052.22 359.367 1053.24 362.304 1053.24 366.438H1057.24ZM1053.46 354.734C1050.84 351.657 1047.1 350.234 1042.58 350.234V354.234C1046.22 354.234 1048.72 355.343 1050.41 357.328L1053.46 354.734ZM1042.58 350.234C1039.2 350.234 1036.19 351.073 1033.69 352.854L1036.01 356.114C1037.72 354.895 1039.88 354.234 1042.58 354.234V350.234ZM1033.71 352.837C1031.28 354.517 1029.43 356.809 1028.17 359.649L1031.82 361.273C1032.81 359.05 1034.2 357.358 1035.98 356.131L1033.71 352.837ZM1028.16 359.665C1026.96 362.444 1026.38 365.583 1026.38 369.039H1030.38C1030.38 366.026 1030.88 363.446 1031.83 361.257L1028.16 359.665ZM1028.38 367.039H1007.15V371.039H1028.38V367.039ZM1009.15 369.039C1009.15 363.179 1010.52 357.875 1013.24 353.083L1009.77 351.105C1006.68 356.532 1005.15 362.524 1005.15 369.039H1009.15ZM1013.25 353.076C1015.97 348.247 1019.83 344.402 1024.87 341.526L1022.89 338.052C1017.24 341.27 1012.85 345.628 1009.76 351.112L1013.25 353.076ZM1024.87 341.524C1029.91 338.633 1035.93 337.148 1043 337.148V333.148C1035.36 333.148 1028.63 334.757 1022.88 338.054L1024.87 341.524ZM1043 337.148C1053.63 337.148 1061.4 339.681 1066.62 344.432L1069.31 341.474C1063.1 335.819 1054.22 333.148 1043 333.148V337.148ZM1066.62 344.432C1071.85 349.189 1074.54 355.759 1074.54 364.398H1078.54C1078.54 354.85 1075.52 347.123 1069.31 341.474L1066.62 344.432ZM1074.54 364.398C1074.54 368.761 1073.66 372.914 1071.9 376.875L1075.56 378.5C1077.55 374.024 1078.54 369.317 1078.54 364.398H1074.54ZM1071.9 376.875C1070.11 380.905 1067.54 384.998 1064.16 389.152L1067.27 391.676C1070.83 387.299 1073.6 382.907 1075.56 378.5L1071.9 376.875ZM1064.16 389.163C1060.78 393.373 1056.79 397.875 1052.18 402.669L1055.06 405.441C1059.74 400.579 1063.81 395.987 1067.28 391.666L1064.16 389.163ZM1052.17 402.675L1035.16 420.534L1038.05 423.294L1055.07 405.434L1052.17 402.675ZM1036.61 423.914H1079.71V419.914H1036.61V423.914ZM1077.71 421.914V439H1081.71V421.914H1077.71ZM1149.21 435.836L1148.2 434.106L1148.2 434.11L1149.21 435.836ZM1112.79 435.836L1111.78 437.566L1111.79 437.57L1112.79 435.836ZM1100.48 421.633L1098.66 422.457L1098.66 422.468L1100.48 421.633ZM1112.71 339.789L1113.71 341.526L1113.72 341.519L1112.71 339.789ZM1149.07 339.789L1148.06 341.515L1148.07 341.52L1148.07 341.526L1149.07 339.789ZM1142.88 361.938L1140.97 362.539L1140.97 362.546L1142.88 361.938ZM1138.24 354.625L1137.04 356.229L1137.06 356.239L1137.07 356.247L1138.24 354.625ZM1123.54 354.625L1124.71 356.247L1124.72 356.242L1123.54 354.625ZM1118.9 361.938L1116.99 361.336L1116.99 361.345L1116.99 361.353L1118.9 361.938ZM1138.31 421.07L1137.11 419.466L1137.11 419.473L1137.1 419.479L1138.31 421.07ZM1142.88 413.617L1140.97 413.024L1140.97 413.035L1140.96 413.047L1142.88 413.617ZM1163.8 396.742C1163.8 406.746 1162.37 414.734 1159.62 420.808L1163.26 422.457C1166.33 415.688 1167.8 407.082 1167.8 396.742H1163.8ZM1159.62 420.808C1156.86 426.914 1153.04 431.301 1148.2 434.106L1150.21 437.566C1155.88 434.277 1160.21 429.196 1163.26 422.457L1159.62 420.808ZM1148.2 434.11C1143.34 436.953 1137.65 438.406 1131.07 438.406V442.406C1138.26 442.406 1144.67 440.813 1150.22 437.562L1148.2 434.11ZM1131.07 438.406C1124.48 438.406 1118.74 436.953 1113.78 434.102L1111.79 437.57C1117.43 440.812 1123.87 442.406 1131.07 442.406V438.406ZM1113.79 434.106C1108.95 431.299 1105.11 426.908 1102.3 420.797L1098.66 422.468C1101.76 429.202 1106.12 434.279 1111.78 437.566L1113.79 434.106ZM1102.3 420.808C1099.55 414.734 1098.12 406.746 1098.12 396.742H1094.12C1094.12 407.082 1095.6 415.688 1098.66 422.457L1102.3 420.808ZM1098.12 396.742V378.742H1094.12V396.742H1098.12ZM1098.12 378.742C1098.12 368.689 1099.55 360.705 1102.3 354.681L1098.66 353.022C1095.59 359.749 1094.12 368.358 1094.12 378.742H1098.12ZM1102.3 354.681C1105.06 348.625 1108.88 344.286 1113.71 341.526L1111.72 338.053C1106.05 341.292 1101.71 346.328 1098.66 353.022L1102.3 354.681ZM1113.72 341.519C1118.62 338.672 1124.34 337.219 1130.93 337.219V333.219C1123.73 333.219 1117.31 334.813 1111.71 338.059L1113.72 341.519ZM1130.93 337.219C1137.51 337.219 1143.2 338.672 1148.06 341.515L1150.08 338.063C1144.53 334.812 1138.12 333.219 1130.93 333.219V337.219ZM1148.07 341.526C1152.91 344.288 1156.75 348.631 1159.56 354.692L1163.19 353.011C1160.09 346.322 1155.73 341.291 1150.06 338.053L1148.07 341.526ZM1159.56 354.692C1162.35 360.712 1163.8 368.692 1163.8 378.742H1167.8C1167.8 368.355 1166.3 359.741 1163.19 353.011L1159.56 354.692ZM1163.8 378.742V396.742H1167.8V378.742H1163.8ZM1146.5 375.789C1146.5 369.839 1145.95 364.987 1144.78 361.329L1140.97 362.546C1141.96 365.638 1142.5 370.02 1142.5 375.789H1146.5ZM1144.79 361.336C1143.63 357.679 1141.9 354.798 1139.41 353.003L1137.07 356.247C1138.61 357.359 1139.97 359.352 1140.97 362.539L1144.79 361.336ZM1139.43 353.021C1137.03 351.229 1134.15 350.375 1130.93 350.375V354.375C1133.42 354.375 1135.42 355.021 1137.04 356.229L1139.43 353.021ZM1130.93 350.375C1127.7 350.375 1124.81 351.229 1122.37 353.008L1124.72 356.242C1126.4 355.021 1128.44 354.375 1130.93 354.375V350.375ZM1122.37 353.003C1119.88 354.798 1118.15 357.679 1116.99 361.336L1120.81 362.539C1121.81 359.352 1123.17 357.359 1124.71 356.247L1122.37 353.003ZM1116.99 361.353C1115.88 365.001 1115.36 369.844 1115.36 375.789H1119.36C1119.36 370.015 1119.87 365.624 1120.82 362.522L1116.99 361.353ZM1115.36 375.789V399.555H1119.36V375.789H1115.36ZM1115.36 399.555C1115.36 405.553 1115.9 410.468 1117.06 414.211L1120.88 413.024C1119.89 409.829 1119.36 405.369 1119.36 399.555H1115.36ZM1117.06 414.211C1118.22 417.922 1119.98 420.847 1122.51 422.688L1124.86 419.453C1123.27 418.294 1121.89 416.25 1120.88 413.024L1117.06 414.211ZM1122.51 422.688C1124.95 424.466 1127.84 425.32 1131.07 425.32V421.32C1128.58 421.32 1126.54 420.674 1124.86 419.453L1122.51 422.688ZM1131.07 425.32C1134.29 425.32 1137.15 424.467 1139.52 422.661L1137.1 419.479C1135.53 420.674 1133.56 421.32 1131.07 421.32V425.32ZM1139.5 422.675C1141.99 420.826 1143.69 417.894 1144.8 414.187L1140.96 413.047C1140 416.278 1138.66 418.315 1137.11 419.466L1139.5 422.675ZM1144.79 414.211C1145.95 410.468 1146.5 405.553 1146.5 399.555H1142.5C1142.5 405.369 1141.96 409.829 1140.97 413.024L1144.79 414.211ZM1146.5 399.555V375.789H1142.5V399.555H1146.5ZM1254 439V441H1256V439H1254ZM1183.48 439H1181.48V441H1183.48V439ZM1183.48 424.516L1182.02 423.146L1181.48 423.723V424.516H1183.48ZM1216.53 389.359L1217.98 390.729L1217.99 390.722L1218 390.714L1216.53 389.359ZM1224.26 380.008L1222.63 378.853L1222.62 378.859L1224.26 380.008ZM1226.23 356.031L1224.71 357.328L1224.72 357.343L1224.73 357.358L1226.23 356.031ZM1209.14 354.484L1210.28 356.131L1210.29 356.123L1210.3 356.114L1209.14 354.484ZM1204.29 360.461L1202.47 359.649L1202.46 359.657L1202.46 359.665L1204.29 360.461ZM1202.68 369.039V371.039H1204.68V369.039H1202.68ZM1181.44 369.039H1179.44V371.039H1181.44V369.039ZM1185.8 352.094L1187.54 353.083L1187.54 353.076L1185.8 352.094ZM1198.18 339.789L1199.17 341.526L1199.17 341.524L1198.18 339.789ZM1240.01 390.414L1238.46 389.152L1238.45 389.163L1240.01 390.414ZM1227.92 404.055L1226.48 402.669L1226.47 402.675L1227.92 404.055ZM1210.9 421.914L1209.45 420.534L1206.23 423.914H1210.9V421.914ZM1254 421.914H1256V419.914H1254V421.914ZM1254 437H1183.48V441H1254V437ZM1185.48 439V424.516H1181.48V439H1185.48ZM1184.94 425.885L1217.98 390.729L1215.07 387.99L1182.02 423.146L1184.94 425.885ZM1218 390.714C1221.31 387.115 1223.96 383.926 1225.9 381.157L1222.62 378.859C1220.82 381.433 1218.3 384.479 1215.06 388.004L1218 390.714ZM1225.89 381.162C1227.88 378.353 1229.34 375.731 1230.22 373.305L1226.46 371.945C1225.74 373.925 1224.49 376.225 1222.63 378.853L1225.89 381.162ZM1230.22 373.305C1231.08 370.93 1231.54 368.636 1231.54 366.438H1227.54C1227.54 368.083 1227.19 369.914 1226.46 371.945L1230.22 373.305ZM1231.54 366.438C1231.54 361.664 1230.35 357.664 1227.73 354.704L1224.73 357.358C1226.52 359.367 1227.54 362.304 1227.54 366.438H1231.54ZM1227.75 354.734C1225.13 351.657 1221.4 350.234 1216.88 350.234V354.234C1220.52 354.234 1223.02 355.343 1224.71 357.328L1227.75 354.734ZM1216.88 350.234C1213.49 350.234 1210.49 351.073 1207.99 352.854L1210.3 356.114C1212.02 354.895 1214.17 354.234 1216.88 354.234V350.234ZM1208.01 352.837C1205.57 354.517 1203.73 356.809 1202.47 359.649L1206.12 361.273C1207.11 359.05 1208.5 357.358 1210.28 356.131L1208.01 352.837ZM1202.46 359.665C1201.25 362.444 1200.68 365.583 1200.68 369.039H1204.68C1204.68 366.026 1205.18 363.446 1206.13 361.257L1202.46 359.665ZM1202.68 367.039H1181.44V371.039H1202.68V367.039ZM1183.44 369.039C1183.44 363.179 1184.81 357.875 1187.54 353.083L1184.06 351.105C1180.98 356.532 1179.44 362.524 1179.44 369.039H1183.44ZM1187.54 353.076C1190.26 348.247 1194.12 344.402 1199.17 341.526L1197.18 338.052C1191.54 341.27 1187.15 345.628 1184.06 351.112L1187.54 353.076ZM1199.17 341.524C1204.21 338.633 1210.23 337.148 1217.3 337.148V333.148C1209.66 333.148 1202.93 334.757 1197.18 338.054L1199.17 341.524ZM1217.3 337.148C1227.93 337.148 1235.69 339.681 1240.92 344.432L1243.61 341.474C1237.39 335.819 1228.52 333.148 1217.3 333.148V337.148ZM1240.92 344.432C1246.14 349.189 1248.84 355.759 1248.84 364.398H1252.84C1252.84 354.85 1249.82 347.123 1243.61 341.474L1240.92 344.432ZM1248.84 364.398C1248.84 368.761 1247.96 372.914 1246.2 376.875L1249.85 378.5C1251.84 374.024 1252.84 369.317 1252.84 364.398H1248.84ZM1246.2 376.875C1244.41 380.905 1241.84 384.998 1238.46 389.152L1241.56 391.676C1245.12 387.299 1247.9 382.907 1249.85 378.5L1246.2 376.875ZM1238.45 389.163C1235.07 393.373 1231.08 397.875 1226.48 402.669L1229.36 405.441C1234.03 400.579 1238.11 395.987 1241.57 391.666L1238.45 389.163ZM1226.47 402.675L1209.45 420.534L1212.35 423.294L1229.37 405.434L1226.47 402.675ZM1210.9 423.914H1254V419.914H1210.9V423.914ZM1252 421.914V439H1256V421.914H1252ZM1320.76 439V441H1322.76V439H1320.76ZM1299.53 439H1297.53V441H1299.53V439ZM1299.53 361.727H1301.53V359.033L1298.95 359.812L1299.53 361.727ZM1275.55 368.969H1273.55V371.662L1276.13 370.883L1275.55 368.969ZM1275.55 351.812L1274.88 349.928L1273.55 350.402V351.812H1275.55ZM1318.58 336.484V334.484H1318.24L1317.91 334.6L1318.58 336.484ZM1320.76 336.484H1322.76V334.484H1320.76V336.484ZM1320.76 437H1299.53V441H1320.76V437ZM1301.53 439V361.727H1297.53V439H1301.53ZM1298.95 359.812L1274.97 367.054L1276.13 370.883L1300.11 363.641L1298.95 359.812ZM1277.55 368.969V351.812H1273.55V368.969H1277.55ZM1276.22 353.697L1319.25 338.368L1317.91 334.6L1274.88 349.928L1276.22 353.697ZM1318.58 338.484H1320.76V334.484H1318.58V338.484ZM1318.76 336.484V439H1322.76V336.484H1318.76Z" fill="#FF0099"/>
</svg>
