<svg width="44" height="44" viewBox="0 0 44 44" fill="none" xmlns="http://www.w3.org/2000/svg">
<g clip-path="url(#clip0_38_33)">
<path d="M13.842 39.8753C30.4416 39.8753 39.5235 26.1193 39.5235 14.1938C39.5235 13.8071 39.5149 13.4117 39.4977 13.025C41.2644 11.7474 42.7891 10.1648 44 8.35175C42.3546 9.0838 40.6077 9.5619 38.8188 9.76971C40.7023 8.6407 42.1126 6.86706 42.7883 4.77761C41.0163 5.82772 39.0786 6.56849 37.058 6.96815C35.6965 5.52156 33.8965 4.56375 31.9361 4.24279C29.9757 3.92184 27.9642 4.25563 26.2125 5.19254C24.4609 6.12946 23.0666 7.61733 22.2454 9.4261C21.4241 11.2349 21.2216 13.2638 21.6691 15.1992C18.0812 15.0192 14.5712 14.0872 11.3666 12.4635C8.16205 10.8399 5.33444 8.561 3.06711 5.77448C1.91473 7.76131 1.5621 10.1124 2.08089 12.3499C2.59968 14.5874 3.95095 16.5434 5.86008 17.8203C4.42682 17.7748 3.02496 17.3889 1.77031 16.6946V16.8063C1.76903 18.8913 2.48985 20.9124 3.81023 22.5261C5.13062 24.1398 6.96909 25.2464 9.01312 25.6578C7.68543 26.0211 6.29197 26.074 4.94055 25.8125C5.51733 27.6057 6.63955 29.174 8.15058 30.2986C9.66161 31.4233 11.4861 32.0481 13.3693 32.086C10.1721 34.5974 6.22265 35.9596 2.15703 35.9532C1.43603 35.9521 0.715732 35.9079 0 35.8208C4.13024 38.4706 8.93481 39.8779 13.842 39.8753Z" fill="white"/>
</g>
<defs>
<clipPath id="clip0_38_33">
<rect width="44" height="44" fill="white"/>
</clipPath>
</defs>
</svg>
